<svg width="323" height="75" viewBox="0 0 323 75" fill="none" xmlns="http://www.w3.org/2000/svg">
<path d="M32.3128 7.4C31.5795 6.78667 31.5261 6.10667 32.1528 5.36L35.0728 1.84C35.6861 1.10666 36.3661 1.05333 37.1128 1.68C37.8595 2.26666 37.9128 2.94666 37.2728 3.72L34.3528 7.24C33.7795 7.97333 33.0995 8.02667 32.3128 7.4ZM30.7928 37C27.7395 37 25.4795 36.2733 24.0128 34.82C22.5595 33.3533 21.8328 31.0933 21.8328 28.04V18.8C21.8328 15.72 22.5661 13.46 24.0328 12.02C25.4995 10.5667 27.7528 9.85333 30.7928 9.88H35.5928C38.6595 9.88 40.9195 10.6067 42.3728 12.06C43.8261 13.5133 44.5528 15.7733 44.5528 18.84V28.04C44.5528 31.0933 43.8261 33.3533 42.3728 34.82C40.9195 36.2733 38.6595 37 35.5928 37H30.7928ZM30.7928 33.64H35.5928C37.0195 33.64 38.1395 33.4733 38.9528 33.14C39.7661 32.7933 40.3395 32.2133 40.6728 31.4C41.0195 30.5867 41.1928 29.4667 41.1928 28.04V18.84C41.1928 17.4267 41.0195 16.3133 40.6728 15.5C40.3395 14.6867 39.7661 14.1067 38.9528 13.76C38.1395 13.4133 37.0195 13.24 35.5928 13.24H30.7928C29.3795 13.2267 28.2661 13.3867 27.4528 13.72C26.6395 14.0533 26.0595 14.6267 25.7128 15.44C25.3661 16.2533 25.1928 17.3733 25.1928 18.8V28.04C25.1928 29.4667 25.3595 30.5867 25.6928 31.4C26.0395 32.2133 26.6195 32.7933 27.4328 33.14C28.2461 33.4733 29.3661 33.64 30.7928 33.64ZM53.5744 45C52.4544 45 51.8944 44.44 51.8944 43.32V18.4C51.8944 17.28 52.4544 16.72 53.5744 16.72C54.6944 16.72 55.2544 17.28 55.2544 18.4V18.9C55.9744 18.18 56.861 17.64 57.9144 17.28C58.981 16.9067 60.1744 16.72 61.4944 16.72H63.0144C65.681 16.72 67.6544 17.36 68.9344 18.64C70.2144 19.92 70.8544 21.8933 70.8544 24.56V29.16C70.8544 31.8133 70.2144 33.7867 68.9344 35.08C67.6544 36.36 65.681 37 63.0144 37H55.2544V43.32C55.2544 44.44 54.6944 45 53.5744 45ZM55.2544 33.64H63.0144C64.761 33.64 65.941 33.3267 66.5544 32.7C67.181 32.0733 67.4944 30.8933 67.4944 29.16V24.56C67.4944 22.8133 67.181 21.6333 66.5544 21.02C65.941 20.3933 64.761 20.08 63.0144 20.08H61.4944C59.8277 20.08 58.3877 20.28 57.1744 20.68C55.961 21.08 55.321 21.7133 55.2544 22.58V33.64ZM86.0013 37C83.3613 37 81.4146 36.3733 80.1613 35.12C78.9079 33.8667 78.2812 31.9333 78.2812 29.32V20.08H76.3213C75.2013 20.08 74.6413 19.52 74.6413 18.4C74.6413 17.28 75.2013 16.72 76.3213 16.72H78.2812V13.8C78.2812 12.68 78.8413 12.12 79.9613 12.12C81.0813 12.12 81.6413 12.68 81.6413 13.8V16.72H86.2413C87.3613 16.72 87.9213 17.28 87.9213 18.4C87.9213 19.52 87.3613 20.08 86.2413 20.08H81.6413V29.32C81.6413 31.0133 81.9479 32.16 82.5613 32.76C83.1746 33.3467 84.3213 33.64 86.0013 33.64C86.5213 33.64 86.9279 33.7733 87.2213 34.04C87.5279 34.3067 87.6813 34.7333 87.6813 35.32C87.6813 36.44 87.1213 37 86.0013 37ZM95.3191 13.44C94.0524 13.44 93.4191 12.8 93.4191 11.52V10.34C93.4191 9.08667 94.0524 8.46 95.3191 8.46H96.4791C97.6924 8.46 98.2991 9.08667 98.2991 10.34V11.52C98.2991 12.8 97.6924 13.44 96.4791 13.44H95.3191ZM95.8791 37C94.7591 37 94.1991 36.44 94.1991 35.32V18.4C94.1991 17.28 94.7591 16.72 95.8791 16.72C96.9991 16.72 97.5591 17.28 97.5591 18.4V35.32C97.5591 36.44 96.9991 37 95.8791 37ZM112.759 37C110.105 37 108.132 36.36 106.839 35.08C105.559 33.7867 104.919 31.8133 104.919 29.16V24.52C104.919 21.8533 105.552 19.88 106.819 18.6C108.099 17.32 110.079 16.6933 112.759 16.72H116.039C118.025 16.72 119.585 17.0533 120.719 17.72C121.865 18.3867 122.599 19.4133 122.919 20.8C123.039 21.36 122.939 21.7933 122.619 22.1C122.312 22.4067 121.865 22.56 121.279 22.56C120.759 22.56 120.379 22.4267 120.139 22.16C119.899 21.8933 119.679 21.52 119.479 21.04C119.279 20.68 118.912 20.4333 118.379 20.3C117.845 20.1533 117.065 20.08 116.039 20.08H112.759C111.039 20.0533 109.859 20.3533 109.219 20.98C108.592 21.5933 108.279 22.7733 108.279 24.52V29.16C108.279 30.8933 108.592 32.0733 109.219 32.7C109.859 33.3267 111.039 33.64 112.759 33.64H116.039C117.065 33.64 117.845 33.5733 118.379 33.44C118.912 33.2933 119.279 33.04 119.479 32.68C119.679 32.1733 119.899 31.7933 120.139 31.54C120.392 31.2867 120.785 31.16 121.319 31.16C121.879 31.16 122.312 31.3133 122.619 31.62C122.939 31.9267 123.039 32.36 122.919 32.92C122.599 34.2933 121.865 35.32 120.719 36C119.585 36.6667 118.025 37 116.039 37H112.759ZM135.361 37C133.121 37 131.454 36.4533 130.361 35.36C129.268 34.2667 128.721 32.6 128.721 30.36C128.721 28.12 129.261 26.4533 130.341 25.36C131.434 24.2667 133.108 23.72 135.361 23.72H143.821C143.741 22.32 143.374 21.3667 142.721 20.86C142.068 20.34 140.948 20.08 139.361 20.08H137.041C135.708 20.08 134.714 20.1733 134.061 20.36C133.408 20.5333 132.948 20.8533 132.681 21.32C132.441 21.88 132.194 22.2667 131.941 22.48C131.688 22.6933 131.308 22.8 130.801 22.8C130.241 22.8 129.801 22.6467 129.481 22.34C129.161 22.02 129.068 21.6 129.201 21.08C129.601 19.5733 130.434 18.4733 131.701 17.78C132.981 17.0733 134.761 16.72 137.041 16.72H139.361C142.028 16.72 144.001 17.36 145.281 18.64C146.561 19.92 147.201 21.8933 147.201 24.56V35.32C147.201 36.44 146.641 37 145.521 37C144.401 37 143.841 36.44 143.841 35.32V34.42C142.414 36.14 140.334 37 137.601 37H135.361ZM135.361 33.64H137.601C138.588 33.64 139.514 33.5533 140.381 33.38C141.248 33.1933 141.988 32.86 142.601 32.38C143.228 31.9 143.641 31.2133 143.841 30.32V27.08H135.361C134.041 27.08 133.161 27.3 132.721 27.74C132.294 28.18 132.081 29.0533 132.081 30.36C132.081 31.68 132.294 32.56 132.721 33C133.161 33.4267 134.041 33.64 135.361 33.64Z" fill="#243A69"/>
<path d="M175.715 37C172.661 37 170.401 36.2733 168.935 34.82C167.481 33.3533 166.755 31.0933 166.755 28.04V18.8C166.755 15.72 167.488 13.46 168.955 12.02C170.421 10.5667 172.675 9.85333 175.715 9.88H180.515C183.581 9.88 185.841 10.6067 187.295 12.06C188.748 13.5133 189.475 15.7733 189.475 18.84V28.04C189.475 31.0933 188.748 33.3533 187.295 34.82C185.841 36.2733 183.581 37 180.515 37H175.715ZM175.715 33.64H180.515C181.941 33.64 183.061 33.4733 183.875 33.14C184.688 32.7933 185.261 32.2133 185.595 31.4C185.941 30.5867 186.115 29.4667 186.115 28.04V18.84C186.115 17.4267 185.941 16.3133 185.595 15.5C185.261 14.6867 184.688 14.1067 183.875 13.76C183.061 13.4133 181.941 13.24 180.515 13.24H175.715C174.301 13.2267 173.188 13.3867 172.375 13.72C171.561 14.0533 170.981 14.6267 170.635 15.44C170.288 16.2533 170.115 17.3733 170.115 18.8V28.04C170.115 29.4667 170.281 30.5867 170.615 31.4C170.961 32.2133 171.541 32.7933 172.355 33.14C173.168 33.4733 174.288 33.64 175.715 33.64ZM198.496 37C197.376 37 196.816 36.44 196.816 35.32V18.4C196.816 17.28 197.376 16.72 198.496 16.72C199.616 16.72 200.176 17.28 200.176 18.4V19.06C201.59 17.5 203.67 16.72 206.416 16.72H207.536C210.203 16.72 212.176 17.36 213.456 18.64C214.736 19.92 215.376 21.8933 215.376 24.56V35.32C215.376 36.44 214.816 37 213.696 37C212.576 37 212.016 36.44 212.016 35.32V24.56C212.016 22.8133 211.696 21.6333 211.056 21.02C210.43 20.3933 209.256 20.08 207.536 20.08H206.416C204.816 20.08 203.423 20.2667 202.236 20.64C201.05 21 200.363 21.5733 200.176 22.36V35.32C200.176 36.44 199.616 37 198.496 37ZM229.341 37C227.301 37 225.781 36.5 224.781 35.5C223.794 34.4867 223.301 32.96 223.301 30.92V10.52C223.301 9.4 223.861 8.84 224.981 8.84C226.101 8.84 226.661 9.4 226.661 10.52V30.92C226.661 32 226.834 32.7267 227.181 33.1C227.541 33.46 228.261 33.64 229.341 33.64C230.487 33.64 231.061 34.2 231.061 35.32C231.101 36.44 230.527 37 229.341 37ZM238.132 13.44C236.865 13.44 236.232 12.8 236.232 11.52V10.34C236.232 9.08667 236.865 8.46 238.132 8.46H239.292C240.505 8.46 241.112 9.08667 241.112 10.34V11.52C241.112 12.8 240.505 13.44 239.292 13.44H238.132ZM238.692 37C237.572 37 237.012 36.44 237.012 35.32V18.4C237.012 17.28 237.572 16.72 238.692 16.72C239.812 16.72 240.372 17.28 240.372 18.4V35.32C240.372 36.44 239.812 37 238.692 37ZM250.371 37C249.251 37 248.691 36.44 248.691 35.32V18.4C248.691 17.28 249.251 16.72 250.371 16.72C251.491 16.72 252.051 17.28 252.051 18.4V19.06C253.465 17.5 255.545 16.72 258.291 16.72H259.411C262.078 16.72 264.051 17.36 265.331 18.64C266.611 19.92 267.251 21.8933 267.251 24.56V35.32C267.251 36.44 266.691 37 265.571 37C264.451 37 263.891 36.44 263.891 35.32V24.56C263.891 22.8133 263.571 21.6333 262.931 21.02C262.305 20.3933 261.131 20.08 259.411 20.08H258.291C256.691 20.08 255.298 20.2667 254.111 20.64C252.925 21 252.238 21.5733 252.051 22.36V35.32C252.051 36.44 251.491 37 250.371 37ZM277.576 28.24V29.2C277.576 30.92 277.889 32.0933 278.516 32.72C279.142 33.3333 280.322 33.64 282.056 33.64H285.336C286.696 33.64 287.702 33.5133 288.356 33.26C289.009 33.0067 289.442 32.56 289.656 31.92C289.802 31.4133 290.002 31.0267 290.256 30.76C290.522 30.4933 290.922 30.36 291.456 30.36C292.016 30.36 292.442 30.5067 292.736 30.8C293.029 31.0933 293.122 31.52 293.016 32.08C292.722 33.7333 291.936 34.9667 290.656 35.78C289.376 36.5933 287.602 37 285.336 37H282.056C279.402 37 277.429 36.36 276.136 35.08C274.856 33.8 274.216 31.84 274.216 29.2V24.56C274.216 21.8533 274.856 19.8667 276.136 18.6C277.429 17.32 279.402 16.6933 282.056 16.72H285.336C288.002 16.72 289.976 17.36 291.256 18.64C292.536 19.9067 293.176 21.88 293.176 24.56V26.56C293.176 27.68 292.616 28.24 291.496 28.24H277.576ZM282.056 20.08C280.322 20.0533 279.142 20.3533 278.516 20.98C277.889 21.6067 277.576 22.8 277.576 24.56V24.88H289.816V24.56C289.816 22.8133 289.502 21.6333 288.876 21.02C288.262 20.3933 287.082 20.08 285.336 20.08H282.056Z" fill="#5B88A5"/>
<path d="M256.301 64C254.622 64 253.379 63.6003 252.572 62.801C251.773 61.9943 251.373 60.7513 251.373 59.072V54.012C251.373 52.318 251.773 51.0713 252.572 50.272C253.372 49.4653 254.607 49.0693 256.279 49.084H258.941C260.32 49.084 261.372 49.37 262.098 49.942C262.824 50.5067 263.246 51.4013 263.363 52.626C263.407 52.934 263.349 53.1687 263.187 53.33C263.026 53.4913 262.791 53.572 262.483 53.572C261.926 53.572 261.603 53.264 261.515 52.648C261.442 51.9733 261.207 51.5187 260.811 51.284C260.423 51.0493 259.799 50.932 258.941 50.932H256.279C255.502 50.9247 254.89 51.0127 254.442 51.196C254.002 51.3793 253.687 51.6983 253.496 52.153C253.313 52.6003 253.221 53.22 253.221 54.012V59.072C253.221 59.8567 253.313 60.4727 253.496 60.92C253.687 61.3673 254.006 61.6863 254.453 61.877C254.901 62.0603 255.517 62.152 256.301 62.152H258.941C259.799 62.152 260.423 62.0347 260.811 61.8C261.207 61.558 261.442 61.1033 261.515 60.436C261.603 59.82 261.926 59.512 262.483 59.512C262.791 59.512 263.026 59.5927 263.187 59.754C263.349 59.9153 263.407 60.15 263.363 60.458C263.246 61.69 262.824 62.5883 262.098 63.153C261.372 63.7177 260.32 64 258.941 64H256.301ZM268.144 64C267.528 64 267.22 63.692 267.22 63.076V50.008C267.22 49.392 267.528 49.084 268.144 49.084H273.886C275.052 49.084 275.946 49.392 276.57 50.008C277.2 50.624 277.516 51.504 277.516 52.648V53.242C277.516 54.232 277.204 54.9983 276.581 55.541C277.747 56.1937 278.33 57.3853 278.33 59.116V59.864C278.33 61.2133 277.97 62.24 277.252 62.944C276.54 63.648 275.514 64 274.172 64H268.144ZM269.068 62.152H274.172C275 62.152 275.591 61.976 275.943 61.624C276.302 61.2647 276.482 60.678 276.482 59.864V59.116C276.482 58.302 276.309 57.7227 275.965 57.378C275.62 57.026 275.022 56.85 274.172 56.85H269.068V62.152ZM269.068 55.002H274.282C274.817 55.002 275.18 54.837 275.371 54.507C275.569 54.177 275.668 53.7553 275.668 53.242V52.648C275.668 52.01 275.536 51.5663 275.272 51.317C275.008 51.0603 274.546 50.932 273.886 50.932H269.068V55.002ZM281.318 63.912C280.732 63.6847 280.556 63.2813 280.79 62.702L286.026 49.81C286.246 49.326 286.591 49.084 287.06 49.084H287.104C287.581 49.106 287.904 49.348 288.072 49.81L293.396 62.702C293.631 63.2813 293.462 63.6847 292.89 63.912C292.311 64.1393 291.908 63.9707 291.68 63.406L290.492 60.524H283.639L282.506 63.406C282.279 63.978 281.883 64.1467 281.318 63.912ZM284.365 58.676H289.733L286.994 52.01L284.365 58.676Z" fill="#191013"/>
</svg>
